<?xml version="1.0" standalone="no"?><!DOCTYPE svg PUBLIC "-//W3C//DTD SVG 1.1//EN" "http://www.w3.org/Graphics/SVG/1.1/DTD/svg11.dtd"><svg t="1543571482085" class="icon" style="" viewBox="0 0 1024 1024" version="1.1" xmlns="http://www.w3.org/2000/svg" p-id="3669" xmlns:xlink="http://www.w3.org/1999/xlink" width="32" height="32"><defs><style type="text/css"></style></defs><path d="M497.6 713.6l14.4 12.2 14.7-11.9c10.2-8.3 250.5-205.4 250.5-385.1 0-146.1-118.8-264.9-264.9-264.9S247.4 182.7 247.4 328.8c0 170.9 239.9 376.1 250.2 384.8z m14.7-604.2c120.9 0 219.3 98.4 219.3 219.3 0 134.6-167.8 292.2-219 337.2C461.5 619.6 293 456.6 293 328.8c0-121 98.4-219.4 219.3-219.4z" fill="#24BC77" p-id="3670"></path><path d="M620.5 340.2c0-59.7-48.6-108.2-108.2-108.2-59.7 0-108.2 48.6-108.2 108.2s48.6 108.2 108.2 108.2c59.7 0 108.2-48.5 108.2-108.2z m-170.9 0c0-34.5 28.1-62.7 62.7-62.7 34.5 0 62.7 28.1 62.7 62.7s-28.1 62.7-62.7 62.7c-34.6-0.1-62.7-28.2-62.7-62.7zM947.8 913.5L771.4 637.7c-5.3-6.6-13.4-10.4-21.9-10.4H654v56.4h82.1l130.7 219.4H160.4l139.7-219.4h70.5v-56.4h-83.3c-8.2 0-15.9 3.6-21.3 9.7L77.4 912.8c-7.2 8.3-8.9 20.1-4.3 30.2 4.6 10 14.6 16.5 25.6 16.5H926c10.9 0 20.8-6.2 25.4-16.1 4.6-9.8 3.2-21.4-3.6-29.9z" fill="#24BC77" p-id="3671"></path><path d="M342 801.8h340.6v56.4H342z" fill="#24BC77" p-id="3672"></path></svg>