<?xml version="1.0" standalone="no"?><!DOCTYPE svg PUBLIC "-//W3C//DTD SVG 1.1//EN" "http://www.w3.org/Graphics/SVG/1.1/DTD/svg11.dtd"><svg t="1543500719062" class="icon" style="" viewBox="0 0 1024 1024" version="1.1" xmlns="http://www.w3.org/2000/svg" p-id="4094" xmlns:xlink="http://www.w3.org/1999/xlink" width="32" height="32"><defs><style type="text/css"></style></defs><path d="M642.934744 514.708995m-343.13933 0a343.13933 343.13933 0 1 0 686.27866 0 343.13933 343.13933 0 1 0-686.27866 0Z" fill="#EE7964" p-id="4095"></path><path d="M642.934744 866.878307c-30.70194 0-61.40388-3.611993-92.10582-12.641975-90.299824-23.477954-166.151675-83.075838-213.107584-164.345679-97.52381-167.957672-39.731922-384.677249 128.22575-482.201059 167.957672-97.52381 384.677249-39.731922 482.201058 128.22575 46.955908 81.269841 59.597884 176.987654 36.11993 267.287478-23.477954 90.299824-83.075838 166.151675-164.345679 213.107584-55.985891 34.313933-115.583774 50.567901-176.987655 50.567901z m-1.805996-688.084656c-57.791887 0-115.583774 14.447972-166.151676 45.149912-158.92769 92.10582-214.91358 297.989418-122.80776 456.917107C397.319224 758.518519 469.559083 814.504409 556.246914 836.176367c86.687831 23.477954 176.987654 10.835979 252.839506-32.507937 77.657848-45.149912 131.837743-117.389771 155.315696-202.271605 23.477954-86.687831 10.835979-176.987654-32.507936-252.839506-45.149912-77.657848-117.389771-131.837743-202.271605-155.315696-30.70194-10.835979-59.597884-14.447972-88.493827-14.447972z" fill="#333333" p-id="4096"></path><path d="M552.634921 839.78836c86.687831 25.283951 184.21164 16.253968 269.093474-32.507937l-343.13933-594.172839C567.082892 162.539683 668.218695 160.733686 758.518519 189.62963l-205.883598 650.15873z" fill="#BAE1EA" p-id="4097"></path><path d="M648.352734 863.266314c-32.507937 0-66.821869-5.417989-99.329806-14.447972l-9.029983-1.805996 102.941799-326.885362-178.793651-310.631393 7.223986-3.611993c84.881834-48.761905 186.017637-57.791887 287.15344-23.477954l9.029982 3.611993-104.747796 332.303351L832.564374 812.698413l-7.223986 3.611993c-55.985891 30.70194-115.583774 46.955908-176.987654 46.955908z m-84.881835-28.895944c83.075838 21.671958 169.763668 10.835979 243.809524-28.895943L655.57672 541.798942l-92.105821 292.571428zM489.425044 216.719577L650.15873 496.64903l93.911817-299.795414c-88.493827-28.895944-178.793651-21.671958-254.645503 19.865961z" fill="#333333" p-id="4098"></path><path d="M644.740741 518.320988m-45.149912 0a45.149912 45.149912 0 1 0 90.299824 0 45.149912 45.149912 0 1 0-90.299824 0Z" fill="#FFFFFF" p-id="4099"></path><path d="M644.740741 572.500882c-18.059965 0-37.925926-9.029982-46.955909-27.089947-14.447972-25.283951-5.417989-59.597884 19.865962-74.045856s59.597884-5.417989 74.045855 19.865962 5.417989 59.597884-19.865961 74.045855c-9.029982 5.417989-18.059965 7.223986-27.089947 7.223986z m0-90.299824c-5.417989 0-12.641975 1.805996-18.059965 5.41799-18.059965 10.835979-23.477954 32.507937-12.641975 50.567901 10.835979 18.059965 32.507937 23.477954 50.567901 12.641975 18.059965-10.835979 23.477954-32.507937 12.641975-50.567901-7.223986-12.641975-19.865961-18.059965-32.507936-18.059965z" fill="#333333" p-id="4100"></path><path d="M572.500882 45.149912H328.691358C176.987654 45.149912 52.373898 157.121693 52.373898 296.183422v437.051146c0 137.255732 124.613757 249.227513 276.31746 249.227513h242.003527V45.149912z" fill="#55B79D" p-id="4101"></path><path d="M581.530864 991.492063h-252.839506c-157.121693 0-285.347443-115.583774-285.347443-258.257495V296.183422C43.343915 153.5097 171.569665 36.119929 328.691358 36.119929h251.03351v955.372134zM328.691358 54.179894C182.405644 54.179894 61.40388 162.539683 61.40388 296.183422v437.051146c0 131.837743 121.001764 240.197531 267.287478 240.197531h232.973545V54.179894H328.691358z" fill="#333333" p-id="4102"></path><path d="M72.239859 684.472663h243.809524" fill="#55B79D" p-id="4103"></path><path d="M316.049383 693.502646H72.239859c-5.417989 0-9.029982-3.611993-9.029982-9.029983s3.611993-9.029982 9.029982-9.029982h242.003527c5.417989 0 9.029982 3.611993 9.029983 9.029982s-3.611993 9.029982-7.223986 9.029983z" fill="#333333" p-id="4104"></path><path d="M72.239859 568.888889h283.541446" fill="#55B79D" p-id="4105"></path><path d="M355.781305 577.918871H72.239859c-5.417989 0-9.029982-3.611993-9.029982-9.029982s3.611993-9.029982 9.029982-9.029982h283.541446c5.417989 0 9.029982 3.611993 9.029982 9.029982s-3.611993 9.029982-9.029982 9.029982z" fill="#333333" p-id="4106"></path><path d="M72.239859 426.215168h317.855379" fill="#55B79D" p-id="4107"></path><path d="M390.095238 435.24515H72.239859c-5.417989 0-9.029982-3.611993-9.029982-9.029982s3.611993-9.029982 9.029982-9.029983h317.855379c5.417989 0 9.029982 3.611993 9.029982 9.029983s-3.611993 9.029982-9.029982 9.029982z" fill="#333333" p-id="4108"></path><path d="M72.239859 279.929453h373.84127" fill="#55B79D" p-id="4109"></path><path d="M446.081129 288.959436H72.239859c-5.417989 0-9.029982-3.611993-9.029982-9.029983s3.611993-9.029982 9.029982-9.029982h373.84127c5.417989 0 9.029982 3.611993 9.029982 9.029982s-3.611993 9.029982-9.029982 9.029983z" fill="#333333" p-id="4110"></path></svg>