<?xml version="1.0" standalone="no"?><!DOCTYPE svg PUBLIC "-//W3C//DTD SVG 1.1//EN" "http://www.w3.org/Graphics/SVG/1.1/DTD/svg11.dtd"><svg t="1543603510506" class="icon" style="" viewBox="0 0 1024 1024" version="1.1" xmlns="http://www.w3.org/2000/svg" p-id="4308" xmlns:xlink="http://www.w3.org/1999/xlink" width="48" height="48"><defs><style type="text/css"></style></defs><path d="M477.866667 477.866667v98.986666c40.96-3.413333 71.68-23.893333 71.68-51.2 0-30.72-44.373333-40.96-71.68-47.786666zM378.88 389.12c0 30.72 37.546667 40.96 64.853333 47.786667V341.333333c-37.546667 6.826667-64.853333 27.306667-64.853333 47.786667z" fill="" p-id="4309"></path><path d="M887.466667 733.866667v-580.266667c0-10.24-6.826667-17.066667-17.066667-17.066667H17.066667c-10.24 0-17.066667 6.826667-17.066667 17.066667v580.266667c0 10.24 6.826667 17.066667 17.066667 17.066666h853.333333c10.24 0 17.066667-6.826667 17.066667-17.066666zM187.733333 682.666667h-102.4c-10.24 0-17.066667-6.826667-17.066666-17.066667s6.826667-17.066667 17.066666-17.066667h102.4c10.24 0 17.066667 6.826667 17.066667 17.066667s-6.826667 17.066667-17.066667 17.066667z m290.133334-71.68v20.48c0 10.24-6.826667 17.066667-17.066667 17.066666s-17.066667-6.826667-17.066667-17.066666v-20.48c-54.613333-6.826667-95.573333-37.546667-98.986666-78.506667 0-10.24 6.826667-17.066667 13.653333-17.066667 10.24 0 17.066667 6.826667 17.066667 13.653334 3.413333 23.893333 30.72 40.96 64.853333 47.786666v-102.4c-34.133333-6.826667-98.986667-23.893333-98.986667-81.92 0-44.373333 40.96-78.506667 98.986667-85.333333v-17.066667c3.413333-10.24 10.24-17.066667 20.48-17.066666s17.066667 6.826667 17.066667 17.066666V307.2c58.026667 3.413333 102.4 37.546667 105.813333 78.506667 0 10.24-6.826667 17.066667-13.653333 17.066666-10.24 0-17.066667-6.826667-17.066667-13.653333-3.413333-23.893333-34.133333-44.373333-71.68-47.786667v102.4c30.72 6.826667 105.813333 20.48 105.813333 81.92-3.413333 44.373333-47.786667 81.92-109.226666 85.333334zM802.133333 238.933333h-102.4c-10.24 0-17.066667-6.826667-17.066666-17.066666s6.826667-17.066667 17.066666-17.066667h102.4c10.24 0 17.066667 6.826667 17.066667 17.066667s-6.826667 17.066667-17.066667 17.066666z" fill="" p-id="4310"></path><path d="M1006.933333 238.933333h-68.266666c-10.24 0-17.066667 6.826667-17.066667 17.066667v477.866667c0 27.306667-23.893333 51.2-51.2 51.2h-716.8c-10.24 0-17.066667 6.826667-17.066667 17.066666v68.266667c0 10.24 6.826667 17.066667 17.066667 17.066667h853.333333c10.24 0 17.066667-6.826667 17.066667-17.066667v-614.4c0-10.24-6.826667-17.066667-17.066667-17.066667z" fill="" p-id="4311"></path></svg>