<?xml version="1.0" standalone="no"?><!DOCTYPE svg PUBLIC "-//W3C//DTD SVG 1.1//EN" "http://www.w3.org/Graphics/SVG/1.1/DTD/svg11.dtd"><svg t="1543571543245" class="icon" style="" viewBox="0 0 1024 1024" version="1.1" xmlns="http://www.w3.org/2000/svg" p-id="4491" xmlns:xlink="http://www.w3.org/1999/xlink" width="32" height="32"><defs><style type="text/css"></style></defs><path d="M810.914904 793.740756l0 154.233734-152.432715-93.854575c-21.13332 3.450589-42.845831 5.474688-65.122183 5.474688-104.714923 0-198.506053-40.075741-263.23938-103.374392 10.650571 0.615007 21.255093 1.391696 32.089859 1.391696 15.185864 0 30.16195-0.751107 44.985564-1.943258 51.108005 35.171034 115.728768 56.33403 186.163957 56.33403 24.27794 0 47.755654-2.775206 70.356394-7.487531l52.986795 35.3276c-0.058328 0.01535-0.10847 0.042979-0.164752 0.063445l39.986713 26.483164 0-41.881876 0-54.484915c81.801051-46.104037 135.971811-125.716236 135.971811-216.368886 0-57.340963-21.894659-110.1364-58.494229-152.996556 2.438539-16.72901 4.105504-33.662681 4.105504-50.958602 0-7.913227-0.862647-15.636119-1.378393-23.434735C904.453277 382.618281 946.886715 462.020702 946.886715 550.256302 946.886715 649.226385 893.567345 737.118154 810.914904 793.740756zM430.195879 696.42536c-22.279423 0-43.991933-2.018983-65.125253-5.466502l-152.429645 93.844342L212.640981 630.579699C129.98854 573.957097 76.667124 486.055095 76.667124 387.085012c0-170.835853 158.28091-309.330114 353.528756-309.330114 195.245799 0 353.524662 138.494261 353.524662 309.330114C783.720541 557.934169 625.441679 696.42536 430.195879 696.42536zM430.195879 132.146693c-165.209716 0-299.137984 115.666346-299.137984 258.338766 0 90.654696 54.17076 170.264848 135.969764 216.370933l0 54.490032 0 41.87676 39.986713-26.488281c-0.055259-0.01535-0.106424-0.040932-0.164752-0.060375l52.986795-35.32453c22.602787 4.710278 46.078455 7.482415 70.358441 7.482415 165.207669 0 299.135938-115.65816 299.135938-258.345929C729.331817 247.812015 595.403548 132.146693 430.195879 132.146693zM606.956675 431.27956c-22.527063 0-40.791032-18.259876-40.791032-40.794102 0-22.521946 18.264992-40.786938 40.791032-40.786938 22.529109 0 40.794102 18.264992 40.794102 40.786938C647.750777 413.019685 629.486808 431.27956 606.956675 431.27956zM443.790502 431.27956c-22.527063 0-40.791032-18.259876-40.791032-40.794102 0-22.521946 18.264992-40.786938 40.791032-40.786938 22.529109 0 40.792055 18.264992 40.792055 40.786938C484.582557 413.019685 466.320635 431.27956 443.790502 431.27956zM280.624329 431.27956c-22.527063 0-40.788985-18.259876-40.788985-40.794102 0-22.521946 18.261922-40.786938 40.788985-40.786938 22.529109 0 40.794102 18.264992 40.794102 40.786938C321.41843 413.019685 303.154461 431.27956 280.624329 431.27956z" p-id="4492" fill="#ea9518"></path></svg>