<?xml version="1.0" standalone="no"?><!DOCTYPE svg PUBLIC "-//W3C//DTD SVG 1.1//EN" "http://www.w3.org/Graphics/SVG/1.1/DTD/svg11.dtd"><svg t="1543500999029" class="icon" style="" viewBox="0 0 1024 1024" version="1.1" xmlns="http://www.w3.org/2000/svg" p-id="4336" xmlns:xlink="http://www.w3.org/1999/xlink" width="16" height="16"><defs><style type="text/css"></style></defs><path d="M646.2464 512c0 25.38496-20.6336 46.01856-46.00832 46.01856-25.37472 0-46.01856-20.64384-46.01856-46.01856s20.65408-46.01856 46.01856-46.01856C625.62304 465.98144 646.2464 486.61504 646.2464 512zM617.66656 409.81504 642.048 303.0016c0 0-40.63232-12.77952-66.18112 0l17.41824 106.82368L617.66656 409.82528zM684.72832 512c0 46.66368-37.82656 84.49024-84.49024 84.49024S515.74784 558.66368 515.74784 512s37.82656-84.49024 84.49024-84.49024S684.72832 465.33632 684.72832 512zM664.65792 512c0-35.5328-28.88704-64.41984-64.41984-64.41984S535.81824 476.4672 535.81824 512s28.88704 64.41984 64.41984 64.41984S664.65792 547.5328 664.65792 512zM921.10848 146.76992l0 730.44992L115.5584 877.21984 115.5584 146.76992 921.10848 146.76992zM250.37824 180.89984l-92.16 0 0 662.19008 92.16 0L250.37824 180.89984zM883.53792 512c0-156.2112-127.08864-283.29984-283.29984-283.29984S316.93824 355.7888 316.93824 512s127.08864 283.29984 283.29984 283.29984S883.53792 668.2112 883.53792 512zM855.67488 512c0 140.8512-114.57536 255.42656-255.42656 255.42656S344.81152 652.8512 344.81152 512s114.57536-255.42656 255.42656-255.42656S855.67488 371.1488 855.67488 512zM827.81184 512c0-125.68576-101.87776-227.57376-227.57376-227.57376S372.67456 386.31424 372.67456 512s101.87776 227.57376 227.57376 227.57376S827.81184 637.68576 827.81184 512z" p-id="4337" fill="#707070"></path></svg>