<?xml version="1.0" standalone="no"?><!DOCTYPE svg PUBLIC "-//W3C//DTD SVG 1.1//EN" "http://www.w3.org/Graphics/SVG/1.1/DTD/svg11.dtd"><svg t="1543612528783" class="icon" style="" viewBox="0 0 1024 1024" version="1.1" xmlns="http://www.w3.org/2000/svg" p-id="2633" xmlns:xlink="http://www.w3.org/1999/xlink" width="48" height="48"><defs><style type="text/css"></style></defs><path d="M796.530444 172.183664c-51.0359 0-92.20782 38.945924-92.20782 89.983824v83.705836l79.849844 66.71787h32.019938c26.525948 0 47.005908-24.179953 47.005908-50.709901v-28.729944h17.033967c26.525948 0 47.771907-24.795952 47.771906-51.321899v-32.019938c43.899914 0 80.309843-29.545942 80.309844-77.625848H796.530444zM227.467556 172.183664c51.0359 0 92.20782 38.945924 92.20782 89.983824v83.705836l-79.849844 66.71787h-32.019938c-26.525948 0-47.005908-24.179953-47.005908-50.709901v-28.729944h-17.033967c-26.525948 0-47.771907-24.795952-47.771906-51.321899v-32.019938c-48.081906 0-80.309843-29.545942-80.309844-77.625848h211.783587z" fill="#FAEDD6" p-id="2634"></path><path d="M752.57053 377.927262c-62.523878-62.523878-163.89768-62.523878-226.419558 0l-16.981966 16.981967-11.319978-11.319978c-62.523878-62.523878-163.89568-62.523878-226.419558 0s-62.523878 163.89768 0 226.419558l237.741536 237.741535 243.403524-243.403524c62.519878-62.523878 62.519878-163.89568-0.004-226.419558z" fill="#FA004B" p-id="2635"></path><path d="M796.530444 154.079699c-59.599884 0-108.087789 48.487905-108.087789 108.087789V322.39937c-59.569884-17.219966-126.519753-2.417995-173.381661 44.441914l-5.895988 5.895988-0.234-0.234c-46.859908-46.859908-113.807778-61.65988-173.379661-44.441913v-65.893871c0-59.597884-48.487905-108.087789-108.087789-108.087789H0v15.677969c0 52.785897 42.943916 95.729813 95.729813 95.729813h80.051844v-31.357938H95.729813c-30.089941 0-55.423892-20.749959-62.441878-48.693905h194.177621c42.309917 0 76.72985 34.419933 76.72985 76.72985v78.351847a175.127658 175.127658 0 0 0-43.855914 31.981937 176.279656 176.279656 0 0 0-18.439964 21.731958h-34.097934c-17.837965 0-32.351937-14.511972-32.351937-32.351937H144.091719c0 35.129931 28.579944 63.709876 63.709875 63.709876h16.167969c-28.491944 64.493874-16.399968 142.729721 36.371929 195.503618l248.827514 248.827514 11.085978-11.085978L763.658508 615.430798c51.2339-51.2339 64.153875-126.479753 38.791925-189.841629h13.749973c35.127931 0 63.709876-28.579944 63.709875-63.709876h-31.357938c0 17.839965-14.511972 32.351937-32.351937 32.351937h-30.157941a175.949656 175.949656 0 0 0-22.379957-27.393946 175.007658 175.007658 0 0 0-43.855914-31.981938v-72.689858c0-42.307917 34.419933-76.72985 76.72985-76.72985h194.177621c-7.017986 27.943945-32.351937 48.693905-62.441878 48.693905H848.218343v31.357938h80.051844c52.785897 0 95.729813-42.943916 95.729813-95.729813V154.079699H796.530444z m-55.053892 439.187142L509.171006 825.574388 282.513448 598.92283c-56.31189-56.31189-56.31189-147.935711 0-204.247601 28.153945-28.153945 65.139873-42.233918 102.121801-42.233917 36.985928 0 73.967856 14.077973 102.1258 42.233917l22.407957 22.407956 28.067945-28.067945c56.31189-56.31189 147.937711-56.31189 204.247601 0s56.30989 147.933711-0.008 204.251601z" fill="#232323" p-id="2636"></path><path d="M880.236281 314.181386h-80.051844v31.357939h80.051844c35.129931 0 63.709876-28.579944 63.709875-63.709875h-31.357938c0.002 17.839965-14.511972 32.351937-32.351937 32.351936zM223.813563 314.181386H143.761719c-17.839965 0-32.351937-14.511972-32.351937-32.351936H80.051844c0 35.127931 28.579944 63.709876 63.709875 63.709875h80.051844v-31.357939z" fill="#232323" p-id="2637"></path><path d="M735.810563 489.937043h-31.357939c0-35.537931-29.395943-64.347874-64.935873-64.347874v-31.357939c54.353894 0.002 96.293812 43.443915 96.293812 95.705813z" fill="#FFFFFF" p-id="2638"></path><path d="M495.281033 172.173664h31.357938v96.161812h-31.357938zM571.106885 292.915428l-22.173957-22.171957 48.029906-48.029906 22.173957 22.171957zM452.889115 292.929428L404.859209 244.899522l22.171957-22.173957 48.031906 48.029906z" fill="#36C9A3" p-id="2639"></path></svg>