<?xml version="1.0" standalone="no"?><!DOCTYPE svg PUBLIC "-//W3C//DTD SVG 1.1//EN" "http://www.w3.org/Graphics/SVG/1.1/DTD/svg11.dtd"><svg t="1543501158782" class="icon" style="" viewBox="0 0 1024 1024" version="1.1" xmlns="http://www.w3.org/2000/svg" p-id="5141" xmlns:xlink="http://www.w3.org/1999/xlink" width="16" height="16"><defs><style type="text/css"></style></defs><path d="M288.393065 288.766349 83.166456 288.766349c-18.882623 0-34.206155-15.280527-34.206155-34.109824s15.323532-34.109824 34.206155-34.109824L288.391345 220.546701c18.882623 0 34.206155 15.280527 34.206155 34.109824S307.273969 288.766349 288.393065 288.766349L288.393065 288.766349zM280.117189 625.951136 83.166456 625.951136c-18.882623 0-34.206155-15.280527-34.206155-34.109824 0-18.831017 15.323532-34.109824 34.206155-34.109824L280.117189 557.731488c18.882623 0 34.206155 15.280527 34.206155 34.109824C314.325064 610.670609 298.999812 625.951136 280.117189 625.951136L280.117189 625.951136zM239.663271 457.001801 83.171617 457.001801c-18.886064 0-34.211316-15.263325-34.211316-34.149389 0-18.8551 15.325252-34.156269 34.211316-34.156269l156.489934 0c18.884344 0 34.211316 15.301169 34.211316 34.156269C273.874587 441.740196 258.547615 457.001801 239.663271 457.001801L239.663271 457.001801zM459.981185 801.084585 83.214622 801.084585c-18.908426 0-34.254321-15.270206-34.254321-34.156269s15.345894-34.156269 34.254321-34.156269L459.981185 732.772047c18.908426 0 34.254321 15.270206 34.254321 34.156269C494.235506 785.81438 478.891332 801.084585 459.981185 801.084585L459.981185 801.084585z" p-id="5142" fill="#707070"></path><path d="M420.770972 426.11907c0-115.798629 94.407956-209.965757 210.564387-209.965757S841.899745 310.322161 841.899745 426.11907s-94.407956 209.965757-210.564387 209.965757S420.770972 541.917699 420.770972 426.11907L420.770972 426.11907 420.770972 426.11907zM967.735734 816.17589l-147.467491-192.5195c52.342212-49.834162 85.086198-119.860019 85.086198-197.418627 0-150.694584-122.968418-273.303481-274.139497-273.303481s-274.139497 122.608897-274.139497 273.303481 122.968418 273.303481 274.139497 273.303481c48.638624 0 94.287542-12.906652 133.962209-35.133342l147.943986 193.236823c6.691574 8.841822 16.969762 13.503561 27.24623 13.503561 7.291923 0 14.578686-2.270663 20.67335-7.051095C976.340169 852.506491 979.207741 831.114098 967.735734 816.17589L967.735734 816.17589 967.735734 816.17589zM778.654912 424.923532c0 80.964602-65.637629 146.603951-146.603951 146.603951s-146.603951-65.637629-146.603951-146.603951 65.637629-146.603951 146.603951-146.603951S778.654912 343.95893 778.654912 424.923532z" p-id="5143" fill="#707070"></path></svg>