<?xml version="1.0" standalone="no"?><!DOCTYPE svg PUBLIC "-//W3C//DTD SVG 1.1//EN" "http://www.w3.org/Graphics/SVG/1.1/DTD/svg11.dtd"><svg t="1543612364519" class="icon" style="" viewBox="0 0 1024 1024" version="1.1" xmlns="http://www.w3.org/2000/svg" p-id="1227" xmlns:xlink="http://www.w3.org/1999/xlink" width="96" height="96"><defs><style type="text/css"></style></defs><path d="M511.2879 0C229.296245 0 0 229.296245 0 511.2879s229.296245 511.2879 511.2879 511.2879 511.2879-229.296245 511.2879-511.2879S793.279555 0 511.2879 0z m0 995.515994C244.962448 995.515994 28.484006 777.613352 28.484006 511.2879S244.962448 28.484006 511.2879 28.484006s482.803894 216.478442 482.803894 482.803894c1.4242 266.325452-216.478442 484.228095-482.803894 484.228094z m215.054242-655.132128l37.029207 37.029208-283.415855 327.566064-42.726009 49.847009-38.453407-49.847009-138.147427-182.297636 37.029207-37.029207 139.571627 105.39082L726.342142 340.383866z" p-id="1228" fill="#7cba59"></path></svg>