<?xml version="1.0" standalone="no"?><!DOCTYPE svg PUBLIC "-//W3C//DTD SVG 1.1//EN" "http://www.w3.org/Graphics/SVG/1.1/DTD/svg11.dtd"><svg t="1543612783821" class="icon" style="" viewBox="0 0 1024 1024" version="1.1" xmlns="http://www.w3.org/2000/svg" p-id="4473" xmlns:xlink="http://www.w3.org/1999/xlink" width="32" height="32"><defs><style type="text/css"></style></defs><path d="M512 16C238 16 16 238 16 512s222 496 496 496 496-222 496-496S786 16 512 16z m0 896c-220.6 0-400-179.4-400-400S291.4 112 512 112s400 179.4 400 400-179.4 400-400 400z m16-304c-26.4 0-48 21.6-48 48s21.6 48 48 48c47.6 0 92.6 21 123.2 57.6 16.2 19.6 46.4 23.8 67.6 6.2 20.4-17 23.2-47.2 6.2-67.6C676 641.6 604.2 608 528 608z m-176-128c35.4 0 64-28.6 64-64s-28.6-64-64-64-64 28.6-64 64 28.6 64 64 64z m320-128c-35.4 0-64 28.6-64 64s28.6 64 64 64 64-28.6 64-64-28.6-64-64-64z m-331.2 197.6C318 580.2 268 650.8 268 685.8c0 45.4 37.6 82.2 84 82.2s84-36.8 84-82.2c0-35-50-105.6-72.8-136.2-5.6-7.4-16.8-7.4-22.4 0z" fill="#707070" p-id="4474"></path></svg>