<?xml version="1.0" standalone="no"?><!DOCTYPE svg PUBLIC "-//W3C//DTD SVG 1.1//EN" "http://www.w3.org/Graphics/SVG/1.1/DTD/svg11.dtd"><svg t="1543603195672" class="icon" style="" viewBox="0 0 1024 1024" version="1.1" xmlns="http://www.w3.org/2000/svg" p-id="3101" xmlns:xlink="http://www.w3.org/1999/xlink" width="16" height="16"><defs><style type="text/css"></style></defs><path d="M296.40985 208.203926H898.108778L834.498018 568.67479l-452.150913 34.484396c-13.181207 1.004887-23.049972 12.503778-22.045086 25.679869 0.957815 12.562107 11.44568 22.115694 23.838941 22.115694 0.607844 0 1.226944-0.023536 1.840928-0.070608l489.194598-37.312814 79.982636-453.231525H296.40985c-13.217023 0-23.932062 10.716063-23.932062 23.932062-0.001023 13.216 10.715039 23.932062 23.932062 23.932062zM901.771191 694.240601H362.721115c-8.66638-1.312902-16.003486-5.987365-19.60143-12.143575a24.38948 24.38948 0 0 0-0.353041-2.185782L238.847853 187.773617c-7.640004-57.393151-59.766199-98.835006-117.747751-92.879363-16.983813 1.744737-32.849152 7.28594-47.142693 16.45988-11.125385 7.139607-14.349823 21.948895-7.211239 33.069163 7.133468 11.126408 21.947871 14.338566 33.069163 7.211239 7.918343-5.083785 16.724917-8.15575 26.175149-9.125845 29.254278-3.004427 55.812143 15.717983 63.624063 43.063795 0.085958 0.877997 0.215918 1.759063 0.40216 2.6432l1.571798 7.445576c0.00921 0.084934 0.023536 0.167822 0.032746 0.252756a24.009833 24.009833 0 0 0 1.099031 5.108345l100.208282 474.563366c0.904603 29.800723 22.464641 54.918797 51.954279 63.620993a23.817452 23.817452 0 0 0 11.426237 2.899026h3.541663a81.731466 81.731466 0 0 0 7.813966 0.376577c1.437745 0 2.842745-0.134053 4.210905-0.376577h529.895579c13.217023 0 23.932062-10.716063 23.932062-23.932062 0.001023-13.217023-10.715039-23.933085-23.932062-23.933085zM467.927225 762.640434c-48.384987 0-87.753623 39.36352-87.753623 87.748506 0 48.391127 39.369659 87.754646 87.753623 87.754647 48.384987 0 87.754646-39.36352 87.754647-87.754647 0-48.384987-39.369659-87.748507-87.754647-87.748506z m0 127.638005c-21.992897 0-39.889499-17.896602-39.889499-39.889499s17.896602-39.883359 39.889499-39.883359 39.889499 17.890462 39.889499 39.883359-17.896602 39.889499-39.889499 39.889499zM763.091712 762.640434c-48.384987 0-87.748507 39.36352-87.748507 87.748506 0 48.391127 39.36352 87.754646 87.748507 87.754647 48.391127 0 87.753623-39.36352 87.753623-87.754647 0.001023-48.384987-39.362496-87.748507-87.753623-87.748506z m0 127.638005c-21.992897 0-39.883359-17.896602-39.883359-39.889499s17.890462-39.883359 39.883359-39.883359 39.889499 17.890462 39.889499 39.883359-17.896602 39.889499-39.889499 39.889499z" p-id="3102" fill="#bfbfbf"></path></svg>