<?xml version="1.0" standalone="no"?><!DOCTYPE svg PUBLIC "-//W3C//DTD SVG 1.1//EN" "http://www.w3.org/Graphics/SVG/1.1/DTD/svg11.dtd"><svg t="1543571245417" class="icon" style="" viewBox="0 0 1024 1024" version="1.1" xmlns="http://www.w3.org/2000/svg" p-id="2720" xmlns:xlink="http://www.w3.org/1999/xlink" width="24" height="24"><defs><style type="text/css"></style></defs><path d="M440.6 283m-59 0a59 59 0 1 0 118 0 59 59 0 1 0-118 0Z" fill="#C12F72" p-id="2721"></path><path d="M524.4 323.6m-59 0a59 59 0 1 0 118 0 59 59 0 1 0-118 0Z" fill="#C12F72" p-id="2722"></path><path d="M558.6 391.4m-59 0a59 59 0 1 0 118 0 59 59 0 1 0-118 0Z" fill="#FF78BC" p-id="2723"></path><path d="M610.7 422m-59 0a59 59 0 1 0 118 0 59 59 0 1 0-118 0Z" fill="#C12F72" p-id="2724"></path><path d="M684.3 471.3m-59 0a59 59 0 1 0 118 0 59 59 0 1 0-118 0Z" fill="#FF78BC" p-id="2725"></path><path d="M743.2 529.9m-61.5 0a61.5 61.5 0 1 0 123 0 61.5 61.5 0 1 0-123 0Z" fill="#FFA4AF" p-id="2726"></path><path d="M414.3 330.8L367 363l-8.8-18.2-3.4-6.9-3.8-7.9-3.4-7-48.5-100c-3.7-7.5 4.2-12.9 9.8-6.7l105.4 114.5z" fill="#FFA4AF" p-id="2727"></path><path d="M293.1 539.8L236 459.6c-3.8-5.4-2.6-12.9 2.8-16.7l200.5-142.7c5.4-3.8 12.9-2.6 16.7 2.8l74.5 104.6c3.8 5.4 2.6 12.9-2.8 16.7L351.6 549.7c-18.8 13.4-45.1 8.9-58.5-9.9z" fill="#FFC5CF" p-id="2728"></path><path d="M295.2 542.8l-60.7-85.3c-3-4.2-2-10 2.2-13l42.2-30 88.4 124.2-18.6 13.2c-17.2 12.1-41.3 8.1-53.5-9.1z" fill="#FFA4AF" p-id="2729"></path><path d="M454.4 367.8h-20.3c-9.4 0-17.1-7.7-17.1-17.1v-54.2c0-9.4 7.7-17.1 17.1-17.1h20.3c9.4 0 17.1 7.7 17.1 17.1v54.2c0 9.4-7.7 17.1-17.1 17.1z" fill="#FFC5CF" p-id="2730"></path><path d="M444.2 288.3c-11.7 0-21.2 9.5-21.2 21.2h42.4c0.1-11.7-9.4-21.2-21.2-21.2z" fill="#FFA4AF" p-id="2731"></path><path d="M591 683.2L347 453c-4.8-4.5-5-12.2-0.5-17l105.4-111.7c4.5-4.8 12.2-5 17-0.5L712.8 554c4.8 4.5 5 12.2 0.5 17L607.9 682.7c-4.5 4.8-12.1 5-16.9 0.5z" fill="#FFC5CF" p-id="2732"></path><path d="M423 363m-12.3 0a12.3 12.3 0 1 0 24.6 0 12.3 12.3 0 1 0-24.6 0Z" fill="#C12F72" p-id="2733"></path><path d="M675.2 555.7m-77.7 0a77.7 77.7 0 1 0 155.4 0 77.7 77.7 0 1 0-155.4 0Z" fill="#FF78BC" p-id="2734"></path><path d="M662.8 653.7m-63.3 0a63.3 63.3 0 1 0 126.6 0 63.3 63.3 0 1 0-126.6 0Z" fill="#C12F72" p-id="2735"></path><path d="M573.3 685.5m-70.5 0a70.5 70.5 0 1 0 141 0 70.5 70.5 0 1 0-141 0Z" fill="#FF78BC" p-id="2736"></path><path d="M345 536.5c-5.8 0-11.5-1.9-16.3-5.9l4.9-5.9c7.6 6.3 18.9 5.3 25.3-2.4 3.1-3.7 4.5-8.3 4.1-13.1-0.4-4.8-2.7-9.1-6.4-12.1l4.9-5.9c5.3 4.4 8.5 10.5 9.1 17.3 0.6 6.8-1.4 13.5-5.8 18.7-5.1 6.2-12.4 9.3-19.8 9.3z" fill="#C12F72" p-id="2737"></path><path d="M385.4 326.8l-27.2 18-3.4-7 26.4-17.4zM367.3 318.9L351 330l-3.4-7 15.4-10.4z" fill="#FFC5CF" p-id="2738"></path></svg>